<svg width="21" height="21" viewBox="0 0 21 21" fill="none" xmlns="http://www.w3.org/2000/svg">
<g clip-path="url(#clip0_2730_1688)">
<path d="M10.0582 2.34412C12.744 2.34412 13.0618 2.3545 14.1227 2.40281C15.1033 2.44753 15.6359 2.61122 15.9904 2.74897C16.4278 2.91003 16.8235 3.16722 17.1483 3.50158C17.4826 3.82634 17.7398 4.22202 17.9009 4.65943C18.0386 5.01398 18.2023 5.54659 18.247 6.52718C18.2954 7.58802 18.3057 7.90583 18.3057 10.5917C18.3057 13.2775 18.2954 13.5953 18.247 14.6561C18.2023 15.6367 18.0386 16.1693 17.9009 16.5239C17.7334 16.9576 17.477 17.3514 17.1483 17.6801C16.8195 18.0089 16.4257 18.2652 15.992 18.4328C15.6375 18.5705 15.1049 18.7342 14.1243 18.7789C13.0638 18.8272 12.7456 18.8376 10.0598 18.8376C7.37396 18.8376 7.05575 18.8272 5.99531 18.7789C5.01472 18.7342 4.48211 18.5705 4.12756 18.4328C3.69015 18.2717 3.29447 18.0145 2.96971 17.6801C2.63535 17.3554 2.37816 16.9597 2.2171 16.5223C2.07935 16.1677 1.91566 15.6351 1.87094 14.6545C1.82263 13.5937 1.81225 13.2759 1.81225 10.5901C1.81225 7.90423 1.82263 7.58642 1.87094 6.52558C1.91566 5.545 2.07935 5.01238 2.2171 4.65784C2.37816 4.22042 2.63535 3.82475 2.96971 3.49998C3.29447 3.16562 3.69015 2.90843 4.12756 2.74737C4.48211 2.60963 5.01472 2.44593 5.99531 2.40121C7.05615 2.3529 7.37396 2.34252 10.0598 2.34252L10.0582 2.34412ZM10.0598 0.530273C7.32804 0.530273 6.98548 0.541852 5.91266 0.590961C4.83985 0.64007 4.1092 0.811353 3.47038 1.05969C2.79906 1.3124 2.19086 1.70834 1.68808 2.21995C1.17647 2.72273 0.780534 3.33093 0.527823 4.00225C0.279483 4.64107 0.109398 5.37331 0.0606877 6.44373C0.0119778 7.51415 0 7.85832 0 10.5901C0 13.3218 0.0115786 13.6644 0.0606877 14.7372C0.109797 15.81 0.279483 16.5391 0.527823 17.1779C0.780637 17.8489 1.17656 18.4568 1.68808 18.9594C2.19069 19.4713 2.79893 19.8674 3.47038 20.12C4.1092 20.3688 4.84144 20.5389 5.91186 20.5876C6.98228 20.6363 7.32724 20.6483 10.059 20.6483C12.7907 20.6483 13.1333 20.6367 14.2061 20.5876C15.2789 20.5385 16.0072 20.3688 16.646 20.12C17.3144 19.8618 17.9214 19.4666 18.4281 18.96C18.9348 18.4533 19.3299 17.8463 19.5882 17.1779C19.8369 16.5391 20.007 15.8068 20.0557 14.7364C20.1044 13.666 20.1164 13.321 20.1164 10.5893C20.1164 7.85752 20.1048 7.51495 20.0557 6.44214C20.0066 5.36932 19.8369 4.64107 19.5882 4.00225C19.3356 3.33116 18.9398 2.7232 18.4283 2.22075C17.9256 1.70885 17.3174 1.31264 16.646 1.05969C16.0072 0.811353 15.2749 0.641268 14.2045 0.592558C13.1341 0.543848 12.7899 0.53187 10.0582 0.53187L10.0598 0.530273Z" fill="white"/>
<path d="M10.0555 5.42529C9.03396 5.42529 8.03539 5.72821 7.18604 6.29573C6.33668 6.86325 5.67469 7.66989 5.28378 8.61364C4.89286 9.55739 4.79058 10.5959 4.98987 11.5978C5.18916 12.5996 5.68106 13.5199 6.40338 14.2422C7.12569 14.9646 8.04598 15.4565 9.04786 15.6557C10.0497 15.855 11.0882 15.7528 12.032 15.3618C12.9757 14.9709 13.7824 14.3089 14.3499 13.4596C14.9174 12.6102 15.2203 11.6116 15.2203 10.5901C15.2204 9.91187 15.0868 9.24023 14.8273 8.61358C14.5677 7.98692 14.1873 7.41754 13.7077 6.93792C13.2281 6.45831 12.6587 6.07788 12.032 5.81834C11.4054 5.5588 10.7337 5.42524 10.0555 5.42529ZM10.0555 13.9439C9.39216 13.9439 8.74373 13.7472 8.1922 13.3787C7.64068 13.0102 7.21081 12.4864 6.95697 11.8736C6.70313 11.2608 6.63671 10.5864 6.76612 9.93585C6.89553 9.28527 7.21494 8.68768 7.68398 8.21865C8.15302 7.74961 8.75061 7.43019 9.40118 7.30078C10.0518 7.17138 10.7261 7.23779 11.3389 7.49164C11.9517 7.74548 12.4755 8.17534 12.8441 8.72687C13.2126 9.2784 13.4093 9.92682 13.4093 10.5901C13.4093 11.4796 13.0559 12.3327 12.427 12.9616C11.798 13.5906 10.945 13.9439 10.0555 13.9439Z" fill="white"/>
<path d="M15.4257 6.42761C16.0923 6.42761 16.6327 5.88723 16.6327 5.22064C16.6327 4.55405 16.0923 4.01367 15.4257 4.01367C14.7591 4.01367 14.2188 4.55405 14.2188 5.22064C14.2188 5.88723 14.7591 6.42761 15.4257 6.42761Z" fill="white"/>
</g>
<defs>
<clipPath id="clip0_2730_1688">
<rect width="20.1164" height="20.1164" fill="white" transform="translate(0 0.531738)"/>
</clipPath>
</defs>
</svg>
