<svg width="160" height="26" viewBox="0 0 160 26" fill="none" xmlns="http://www.w3.org/2000/svg">
<path d="M23.7412 5.23306H21.4762V24.8805H17.3104L7.15875 11.4568V20.4466H9.42366V24.8398H0V20.4873H2.26491V5.23306H0V0.839844H7.1183L16.5824 13.328V5.23306H14.3175V0.839844H23.7007L23.7412 5.23306ZM38.7462 16.2975C38.7462 16.6636 38.7462 17.0297 38.7058 17.3958H28.4328C28.1496 20.7314 29.4034 21.7076 31.3043 21.7076C32.8817 21.7076 34.095 20.65 34.095 19.0229H38.544C38.4226 21.9517 36.9262 25.2873 31.0617 25.2873C25.1972 25.2873 22.4469 21.0161 22.4469 16.2975C22.4469 12.0263 25.2781 7.51103 30.9403 7.51103C36.36 7.47035 38.7462 11.2534 38.7462 16.2975ZM64.3074 11.9449H62.8109L59.0091 24.8805H53.9535L51.5672 17.8026L49.4237 24.8805H44.2467L39.9596 11.9856H38.4631V7.59239H47.4014V11.9449H45.1365L47.4823 18.8195L50.5561 7.59239H53.3064L57.0677 18.8195L59.09 11.9449H56.8251V7.59239H64.3074V11.9449ZM70.5763 12.1483C70.5763 12.7585 71.0617 13.1653 72.7604 13.7348L75.187 14.5483C77.4115 15.2805 80.0809 16.9483 80.0809 19.9992C80.0809 23.5788 77.4115 25.2873 74.1355 25.2873C71.5066 25.2873 69.4843 23.9856 68.9181 23.4161V24.8398H64.55V18.9009H68.8372C68.9585 20.8534 70.6977 21.8704 72.275 21.8704C73.5693 21.8704 74.1759 21.3009 74.1759 20.65C74.1759 19.8365 73.6906 19.389 71.547 18.6975L69.4034 17.9653C67.2194 17.2737 64.7927 15.6466 64.7927 12.7585C64.7927 9.21951 67.907 7.42967 70.5763 7.42967C73.3266 7.42967 74.6613 8.20256 75.3488 8.97544L75.3893 7.63306H79.6764V13.0432H75.1466C75.0657 11.5788 73.6502 10.928 72.2346 10.928C71.1021 10.928 70.5763 11.4568 70.5763 12.1483ZM106.289 11.9449H104.793L100.991 24.8805H95.9353L93.549 17.8026L91.4055 24.8805H86.2285L81.9414 11.9856H80.4449V7.59239H89.3832V11.9449H87.1183L89.4641 18.8195L92.5379 7.59239H95.2882L99.0495 18.8602L101.072 11.9856H98.8069V7.59239H106.289V11.9449ZM122.144 16.2568C122.144 16.6229 122.144 16.989 122.103 17.3551H111.83C111.547 20.6907 112.801 21.667 114.702 21.667C116.279 21.667 117.492 20.6093 117.492 18.9822H121.941C121.82 21.911 120.324 25.2466 114.459 25.2466C108.595 25.2466 105.844 20.9754 105.844 16.2568C105.844 11.9856 108.675 7.47035 114.338 7.47035C119.757 7.42967 122.144 11.2127 122.144 16.2568ZM139.09 16.2161C139.09 16.5822 139.09 16.9483 139.05 17.3144H128.777C128.493 20.65 129.747 21.6263 131.648 21.6263C133.225 21.6263 134.439 20.5687 134.439 18.9415H138.888C138.766 21.8704 137.27 25.2059 131.405 25.2059C125.541 25.2059 122.791 20.9348 122.791 16.2161C122.791 11.9449 125.622 7.42967 131.284 7.42967C136.704 7.389 139.09 11.172 139.09 16.2161ZM157.695 24.8398H152.518L147.139 17.8026L145.399 19.1043V20.4873H146.936V24.8398H139.009V20.4873H140.506V5.15171H138.241V0.839844H145.44V14.6297L149.039 11.9856H146.775V7.59239H156.441V11.9856H154.944L151.183 14.8331L155.511 20.4873H157.776L157.695 24.8398ZM160 23.8636C160 24.067 159.96 24.2297 159.838 24.3517C159.757 24.5144 159.636 24.6365 159.474 24.7178C159.312 24.7992 159.151 24.8805 158.948 24.8805C158.746 24.8805 158.584 24.8398 158.463 24.7178C158.301 24.6365 158.18 24.5144 158.099 24.3517C158.018 24.189 157.937 24.0263 157.937 23.8636C157.937 23.6602 157.978 23.4975 158.099 23.3754C158.18 23.2127 158.301 23.0907 158.463 23.0093C158.625 22.928 158.787 22.8466 158.948 22.8466C159.151 22.8466 159.312 22.8873 159.474 23.0093C159.636 23.0907 159.757 23.2127 159.838 23.3754C159.96 23.5382 160 23.7009 160 23.8636ZM159.596 24.4331C159.757 24.2704 159.838 24.067 159.838 23.8636C159.838 23.6195 159.757 23.4568 159.596 23.2941C159.434 23.1314 159.232 23.05 159.029 23.05C158.827 23.05 158.625 23.1314 158.463 23.2941C158.301 23.4568 158.22 23.6602 158.22 23.8636C158.22 24.1076 158.301 24.2704 158.463 24.4331C158.625 24.5958 158.827 24.6771 159.029 24.6771C159.232 24.6771 159.434 24.5958 159.596 24.4331ZM159.191 23.9449C159.232 23.9856 159.272 23.9856 159.272 23.9856C159.312 24.0263 159.353 24.067 159.353 24.1076C159.353 24.1076 159.434 24.2297 159.515 24.4331H159.191C159.07 24.2297 159.029 24.1076 158.989 24.067C158.948 24.0263 158.908 23.9856 158.868 23.9856H158.827V24.4331H158.584V23.3754H159.07C159.232 23.3754 159.312 23.4161 159.353 23.4568C159.434 23.5381 159.434 23.5788 159.434 23.7009C159.434 23.7822 159.393 23.8636 159.353 23.9043C159.312 23.8636 159.272 23.9043 159.191 23.9449ZM159.151 23.7415C159.191 23.7009 159.191 23.6602 159.191 23.6195C159.191 23.5788 159.151 23.5382 159.151 23.4975C159.11 23.4568 159.07 23.4568 158.989 23.4568H158.868V23.7415H158.989C159.07 23.7822 159.11 23.7822 159.151 23.7415ZM128.777 14.467H134.398C134.398 12.0263 132.821 11.05 131.648 11.05C130.273 11.0907 128.857 12.189 128.777 14.467ZM111.83 14.5076H117.452C117.452 12.067 115.875 11.0907 114.702 11.0907C113.367 11.0907 111.951 12.2297 111.83 14.5076ZM28.4328 14.5483H34.0546C34.0546 12.1076 32.4772 11.1314 31.3043 11.1314C29.9697 11.1314 28.5541 12.2704 28.4328 14.5483Z" fill="white"/>
</svg>
