<svg width="23" height="19" viewBox="0 0 23 19" fill="none" xmlns="http://www.w3.org/2000/svg">
<path d="M20.5703 4.79909C20.5843 4.99824 20.5843 5.19923 20.5843 5.40023C20.5843 11.5537 15.8559 18.6485 7.20986 18.6485C4.65366 18.6521 2.15053 17.9261 0 16.5574C0.370686 16.6011 0.743639 16.6232 1.11694 16.6237C3.23407 16.6262 5.29043 15.9228 6.95482 14.6267C5.97381 14.6088 5.02301 14.2875 4.23555 13.7077C3.44809 13.1278 2.86341 12.3186 2.56338 11.3932C3.26758 11.528 3.99362 11.5009 4.68557 11.3139C3.62189 11.101 2.66527 10.5302 1.97789 9.69845C1.2905 8.86665 0.914645 7.82499 0.914031 6.75004V6.69103C1.56786 7.05151 2.29945 7.25134 3.04739 7.27374C2.05277 6.61476 1.34899 5.60516 1.07924 4.45037C0.809496 3.29558 0.994055 2.08237 1.59537 1.05761C2.77555 2.49602 4.24791 3.67252 5.91688 4.51072C7.58584 5.34893 9.4141 5.8301 11.283 5.92301C11.0492 4.92487 11.1541 3.87826 11.5813 2.94509C12.0085 2.01192 12.7342 1.24419 13.6462 0.760696C14.5582 0.277198 15.6056 0.104871 16.6264 0.270376C17.6472 0.435881 18.5845 0.929993 19.2933 1.67627C20.3457 1.47056 21.3549 1.08827 22.2774 0.545896C21.9266 1.62408 21.1923 2.53926 20.2111 3.12104C21.1427 3.01195 22.0525 2.76518 22.9103 2.38898C22.2806 3.32332 21.4883 4.13937 20.5703 4.79909Z" fill="white"/>
</svg>
