<svg width="4" height="7" viewBox="0 0 4 7" fill="none" xmlns="http://www.w3.org/2000/svg">
<path d="M3.45635 3.62009L0.535206 6.95026C0.47703 7.01658 0.382704 7.01658 0.324548 6.95026L0.0436373 6.63001C0.0156912 6.59818 0 6.55498 0 6.50994C0 6.4649 0.0156912 6.4217 0.0436373 6.38986L2.57856 3.50001L0.0436373 0.610146C0.0156912 0.578309 0 0.535106 0 0.490068C0 0.445031 0.0156912 0.401827 0.0436373 0.369991L0.324548 0.049747C0.353626 0.0165973 0.391761 0 0.429877 0C0.467992 0 0.506128 0.0165744 0.535206 0.049747L3.45635 3.37991C3.51455 3.44624 3.51455 3.55377 3.45635 3.62009Z" fill="#F72210"/>
</svg>