<svg width="21" height="21" viewBox="0 0 21 21" fill="none" xmlns="http://www.w3.org/2000/svg">
<path d="M8.30899 1.39366C12.3169 1.39366 15.6405 4.73759 15.6405 8.76996C15.6405 10.5403 15.0539 12.2122 13.8809 13.4908L13.4899 13.9825L13.0011 14.376C11.7303 15.5562 10.0685 16.1463 8.30899 16.1463C4.30113 16.1463 0.977528 12.8023 0.977528 8.76996C0.977528 4.73759 4.30113 1.39366 8.30899 1.39366ZM8.30899 0.410156C3.71461 0.410156 0 4.14748 0 8.76996C0 13.3924 3.71461 17.1298 8.30899 17.1298C10.3618 17.1298 12.2191 16.4413 13.6854 15.1628L19.0618 20.572L20.1371 19.4902L14.6629 14.1793C15.836 12.704 16.618 10.8353 16.618 8.76996C16.618 4.14748 12.9034 0.410156 8.30899 0.410156V0.410156Z" fill="black"/>
</svg>